<svg id="infinia_landing_components" data-name="infinia landing components" xmlns="http://www.w3.org/2000/svg" viewBox="0 0 1328.31 720.86">
  <defs>
    <style>
      .cls-1 {
        fill: #182d35;
      }

      .cls-2 {
        fill: #c0a27d;
      }

      .cls-3 {
        fill: #f2f2f2;
      }

      .cls-4, .cls-5 {
        fill: none;
        stroke: #000;
        stroke-miterlimit: 10;
      }

      .cls-4 {
        stroke-width: 5px;
      }

      .cls-5 {
        stroke-width: 2px;
      }
    </style>
  </defs>
  <title>infinialandingcluster</title>
  <g id="teal-square">
    <polygon class="cls-1" points="170 323.36 0 323.36 150.62 0.36 320.62 0.36 170 323.36"/>
  </g>
  <g id="bronze-square">
    <polygon class="cls-2" points="371 323.36 201 323.36 351.62 0.36 521.62 0.36 371 323.36"/>
  </g>
  <g id="white-square">
    <polygon class="cls-3" points="580 323.36 410 323.36 560.62 0.36 730.62 0.36 580 323.36"/>
  </g>
  <g id="server-icon">
    <rect id="server-gauge" x="1201.02" y="181.93" width="101.07" height="20.21"/>
    <rect id="server-gauge-2" data-name="server-gauge" x="1140.38" y="101.07" width="161.71" height="20.21"/>
    <rect id="server-gauge-3" data-name="server-gauge" x="1241.45" y="20.21" width="60.64" height="20.21"/>
    <path id="server-body" d="M1336,199.46v40.43A10.25,10.25,0,0,1,1325.89,250H1063.11A10.25,10.25,0,0,1,1053,239.89V199.46a10.25,10.25,0,0,1,10.11-10.1h262.78a10.25,10.25,0,0,1,10.11,10.1Z" transform="translate(-13.69 -27.64)"/>
    <path id="server-body-2" data-name="server-body" d="M1336,118.61V159a10.25,10.25,0,0,1-10.11,10.1H1063.11A10.25,10.25,0,0,1,1053,159V118.61a10.25,10.25,0,0,1,10.11-10.11h262.78A10.25,10.25,0,0,1,1336,118.61Z" transform="translate(-13.69 -27.64)"/>
    <path id="server-body-3" data-name="server-body" d="M1336,37.75V78.18a10.25,10.25,0,0,1-10.11,10.11H1063.11A10.25,10.25,0,0,1,1053,78.18V37.75a10.25,10.25,0,0,1,10.11-10.11h262.78A10.25,10.25,0,0,1,1336,37.75Z" transform="translate(-13.69 -27.64)"/>
  </g>
  <g id="card-icon">
    <path id="card-person-body" d="M1179.5,501.22a20.17,20.17,0,0,1-4.44,13.19c-3,3.62-6.52,5.43-10.65,5.43h-60.12q-6.21,0-10.65-5.43a20.12,20.12,0,0,1-4.45-13.19,88.83,88.83,0,0,1,1.06-14.19,62.3,62.3,0,0,1,3.46-12.7,21.3,21.3,0,0,1,7.19-9.66,18.78,18.78,0,0,1,11.43-3.53,31.35,31.35,0,0,0,44,0,18.78,18.78,0,0,1,11.43,3.53,21.25,21.25,0,0,1,7.2,9.66,62.3,62.3,0,0,1,3.46,12.7A90,90,0,0,1,1179.5,501.22Z" transform="translate(-13.69 -27.64)"/>
    <path id="card-person-head" d="M1161.44,438.58a27,27,0,1,1-7.9-19.19A26.13,26.13,0,0,1,1161.44,438.58Z" transform="translate(-13.69 -27.64)"/>
    <path id="cardp4" d="M1305.88,497.27v9a4.36,4.36,0,0,1-4.52,4.51H1202a4.35,4.35,0,0,1-4.52-4.51v-9a4.35,4.35,0,0,1,4.52-4.52h99.34a4.35,4.35,0,0,1,3.24,1.27A4.4,4.4,0,0,1,1305.88,497.27Z" transform="translate(-13.69 -27.64)"/>
    <path id="cardp3" d="M1251.69,461.14v9a4.35,4.35,0,0,1-4.52,4.52H1202a4.35,4.35,0,0,1-4.52-4.52v-9a4.35,4.35,0,0,1,1.27-3.24,4.4,4.4,0,0,1,3.25-1.28h45.15a4.36,4.36,0,0,1,4.52,4.52Z" transform="translate(-13.69 -27.64)"/>
    <path id="cardp2" d="M1305.88,461.14v9a4.36,4.36,0,0,1-4.52,4.52h-27.09a4.35,4.35,0,0,1-4.52-4.52v-9a4.35,4.35,0,0,1,1.27-3.24,4.4,4.4,0,0,1,3.25-1.28h27.09a4.38,4.38,0,0,1,4.52,4.52Z" transform="translate(-13.69 -27.64)"/>
    <path id="cardp1" d="M1305.88,425v9a4.36,4.36,0,0,1-4.52,4.51H1202a4.35,4.35,0,0,1-4.52-4.51v-9a4.35,4.35,0,0,1,4.52-4.52h99.34a4.35,4.35,0,0,1,3.24,1.27A4.4,4.4,0,0,1,1305.88,425Z" transform="translate(-13.69 -27.64)"/>
    <path id="card-background" d="M1323.94,542.42v-158H1071.06v158a4.58,4.58,0,0,0,4.52,4.52h243.84a4.58,4.58,0,0,0,4.52-4.52Z" transform="translate(-13.69 -27.64)"/>
    <path id="card-container" d="M1342,370.83V542.42A22.64,22.64,0,0,1,1319.42,565H1075.58A22.64,22.64,0,0,1,1053,542.42V370.83a22.64,22.64,0,0,1,22.58-22.58h243.84A22.64,22.64,0,0,1,1342,370.83Z" transform="translate(-13.69 -27.64)"/>
  </g>
  <g id="separator-icon">
    <circle class="cls-4" cx="166.81" cy="692.86" r="25.5"/>
    <line class="cls-5" x1="127.31" y1="692.36" x2="12.31" y2="692.36"/>
    <line class="cls-5" x1="321.31" y1="693.36" x2="206.31" y2="693.36"/>
  </g>
  <g id="arrow-icon">
    <path id="arrow" d="M907.55,562a6.59,6.59,0,0,1-1.91,4.87L837.76,634.7a6.9,6.9,0,0,1-11.67-4.88V589.1H751.43a6.9,6.9,0,0,1-6.79-6.79V541.58a6.9,6.9,0,0,1,6.79-6.79h74.66V494.07a6.54,6.54,0,0,1,6.79-6.79A8,8,0,0,1,838,489.4l67.67,67.67A6.62,6.62,0,0,1,907.55,562Z" transform="translate(-13.69 -27.64)"/>
    <path id="arrow-background" d="M941.49,561.91A112.81,112.81,0,0,0,926,504a114.93,114.93,0,0,0-42-42,116,116,0,0,0-115.81,0,114.93,114.93,0,0,0-42,42,116,116,0,0,0,0,115.81,114.93,114.93,0,0,0,42,42,116,116,0,0,0,115.81,0,114.93,114.93,0,0,0,42-42A112.78,112.78,0,0,0,941.49,561.91Z" transform="translate(-13.69 -27.64)"/>
    <path id="arrow-circle" d="M989,561.91q0,44.33-21.85,81.77A162.12,162.12,0,0,1,907.87,703q-37.44,21.85-81.78,21.85T744.32,703A162,162,0,0,1,685,643.68q-21.85-37.44-21.85-81.77T685,480.13a162.12,162.12,0,0,1,59.28-59.28Q781.76,399,826.09,399t81.78,21.85a162.19,162.19,0,0,1,59.28,59.28Q989,517.57,989,561.91Z" transform="translate(-13.69 -27.64)"/>
  </g>
</svg>
